Coordinates
version=1
nRows=31
nColumns=13
inDegrees=yes

Units are S.I. units (second, meters, Newtons, ...)
If the header above contains a line with 'inDegrees', this indicates whether rotational values are in degrees (yes) or radians (no).

endheader
time	bJoint_3	seatpos	hipangle	kneeangle	footangle	lbackangle	uarmleft_out	uarmleft_trn	uarmleft_up	uarmright_out	uarmright_trn	uarmright_up
      5.22500000	      0.00000002	     -0.00278543	     94.58914342	      2.93634010	      7.52548352	    -40.34999581	     68.69798237	     -9.44939168	     -0.00000000	     72.27427315	    -10.07653168	     -0.00000000
      5.23000000	      0.00000002	     -0.00279187	     94.57253928	      2.96716604	      7.53970533	    -40.35320926	     68.23986075	     -8.79998740	     -0.00000000	     71.79734438	     -9.63100026	     -0.00000000
      5.23500000	      0.00000002	     -0.00280229	     94.54602757	      3.01638729	      7.56241486	    -40.35300961	     67.93944815	     -8.38227010	     -0.00000000	     71.47301392	     -9.16049431	     -0.00000000
      5.24000000	      0.00000002	     -0.00281377	     94.51731528	      3.06969637	      7.58701165	    -40.35249717	     67.49022987	     -7.94255051	     -0.00000000	     71.00736760	     -8.71719437	     -0.00000000
      5.24500000	      0.00000002	     -0.00283933	     94.45512281	      3.18517507	      7.64029788	    -40.34336565	     67.05677020	     -7.50490543	     -0.00000000	     70.70412322	     -8.25270547	     -0.00000000
      5.25000000	      0.00000002	     -0.00284237	     94.44787623	      3.19863121	      7.64650744	    -40.34809664	     66.75044301	     -7.08532844	     -0.00000000	     70.23494620	     -7.81106674	     -0.00000000
      5.25500000	      0.00000002	     -0.00284436	     94.44315632	      3.20739567	      7.65055199	    -40.35072397	     66.30147545	     -6.64729429	     -0.00000000	     69.92725502	     -7.17712096	     -0.00000000
      5.26000000	      0.00000002	     -0.00287380	     94.37466190	      3.33459105	      7.70925295	    -40.33882988	     66.03273448	     -5.98845855	     -0.00000000	     69.48777812	     -6.73791044	     -0.00000000
      5.26500000	      0.00000002	     -0.00289670	     94.32314904	      3.43026029	      7.75340933	    -40.33357335	     65.74449688	     -5.57050760	     -0.00000000	     69.18910807	     -6.28202235	     -0.00000000
      5.27000000	      0.00000001	     -0.00292325	     94.26518833	      3.53791355	      7.80310188	    -40.32702964	     65.31707492	     -5.13818738	     -0.00000000	     68.74680140	     -5.84539719	     -0.00000000
      5.27500000	      0.00000001	     -0.00291670	     94.27931820	      3.51166856	      7.79098676	    -40.33322189	     65.01145097	     -4.71895312	     -0.00000000	     68.43591295	     -5.42263241	     -0.00000000
      5.28000000	      0.00000001	     -0.00292915	     94.25254272	      3.56140213	      7.81394485	    -40.33319310	     64.71647538	     -4.30001665	     -0.00000000	     67.98578288	     -4.98672343	     -0.00000000
      5.28500000	      0.00000001	     -0.00294367	     94.22177681	      3.61855019	      7.84032700	    -40.32990079	     64.28775885	     -3.87032683	     -0.00000000	     67.69145124	     -4.56440982	     -0.00000000
      5.29000000	      0.00000001	     -0.00295824	     94.19137764	      3.67501971	      7.86639735	    -40.32907474	     63.99523992	     -3.45191759	     -0.00000000	     67.24577223	     -3.91925409	     -0.00000000
      5.29500000	      0.00000001	     -0.00297427	     94.15848623	      3.73612181	      7.89460803	    -40.32595478	     63.70591252	     -2.82458361	     -0.00000000	     67.10488652	     -3.48770508	     -0.00000000
      5.30000000	      0.00000001	     -0.00302008	     94.06728259	      3.90556624	      7.97284883	    -40.31421272	     63.29625426	     -2.39972537	     -0.00000000	     66.68169624	     -3.05817268	     -0.00000000
      5.30500000	      0.00000001	     -0.00300111	     94.10455649	      3.83631333	      7.94086982	    -40.32485500	     62.82621171	     -1.98605322	     -0.00000000	     66.36689870	     -2.63610512	     -0.00000000
      5.31000000	      0.00000001	     -0.00302812	     94.05169214	      3.93453364	      7.98622578	    -40.32021436	     62.54102100	     -1.56764057	     -0.00000000	     65.93505615	     -2.20874837	     -0.00000000
      5.31500000	      0.00000001	     -0.00305913	     93.99256821	      4.04439354	      8.03696175	    -40.31243355	     62.12877455	     -1.14614266	     -0.00000000	     65.65195365	     -1.78830151	     -0.00000000
      5.32000000	      0.00000001	     -0.00309469	     93.92671016	      4.16677809	      8.09348824	    -40.30645855	     61.84751578	     -0.72917552	     -0.00000000	     65.22611736	     -1.36392161	     -0.00000000
      5.32500000	      0.00000001	     -0.00310259	     93.91234498	      4.19347465	      8.10581963	    -40.30658163	     61.55566133	     -0.31234197	     -0.00000000	     64.93070219	     -0.73434120	     -0.00000000
      5.33000000	      0.00000001	     -0.00311321	     93.89316577	      4.22911866	      8.12228442	    -40.30594469	     61.26540205	      0.10403910	     -0.00000000	     64.63681003	     -0.31465120	     -0.00000000
      5.33500000	      0.00000001	     -0.00312599	     93.87030023	      4.27161495	      8.14191518	    -40.30478238	     60.97636592	      0.51998465	     -0.00000000	     64.34399401	      0.10486499	     -0.00000000
      5.34000000	      0.00000001	     -0.00317652	     93.78204375	      4.43565624	      8.21769999	    -40.29627535	     60.70099561	      0.93556109	     -0.00000000	     63.92856503	      0.52276606	     -0.00000000
      5.34500000	      0.00000001	     -0.00317281	     93.78842978	      4.42378592	      8.21221570	    -40.10566076	     60.21172974	      1.55755276	     -0.00000000	     63.57112956	      0.94291846	     -0.00000000
      5.35000000	      0.00000001	     -0.00321055	     93.72443323	      4.54274832	      8.26718155	    -39.71564498	     59.66431475	      1.97659954	     -0.00000000	     63.05260769	      1.35785319	     -0.00000000
      5.35500000	      0.00000001	     -0.00320353	     93.73619848	      4.52087717	      8.25707564	    -39.33124946	     59.26853266	      2.39161269	     -0.00000000	     62.49583468	      1.98841573	     -0.00000000
      5.36000000	      0.00000001	     -0.00322555	     93.69945585	      4.58918164	      8.28863749	    -38.93981670	     58.88015982	      3.01445767	     -0.00000000	     62.10829527	      2.40639865	     -0.00000000
      5.36500000	      0.00000001	     -0.00321518	     93.71669369	      4.55713602	      8.27382970	    -38.55604133	     58.31080632	      3.43638199	     -0.00000000	     61.70473560	      3.03282970	     -0.00000000
      5.37000000	      0.00000001	     -0.00323140	     93.68978753	      4.60715566	      8.29694319	    -38.16220030	     57.79447360	      3.84146809	     -0.00000000	     61.15421204	      3.45909415	     -0.00000000
      5.37500000	      0.00000001	     -0.00327863	     93.61304974	      4.74982554	      8.36287528	    -37.76218374	     57.41084016	      4.46448241	     -0.00000000	     60.63737160	      3.86841040	     -0.00000000
